<svg width="119" height="21" viewBox="0 0 119 21" fill="none" xmlns="http://www.w3.org/2000/svg">
<path fill-rule="evenodd" clip-rule="evenodd" d="M64.6372 9.48614C50.9902 10.3047 37.3465 11.6902 23.7636 13.6718C16.3448 14.7539 7.72211 14.9266 0.536846 18.0396C-0.0291883 18.2852 0.0880242 18.9747 0.100824 19.0426C0.12646 19.1846 0.233089 19.655 0.687422 19.6633C0.723088 19.6643 0.966229 19.6152 1.06069 19.5956C3.17916 19.1558 5.29106 18.6541 7.41119 18.235C14.7348 16.7834 22.0788 15.6312 29.4359 14.5904C39.2019 13.2081 49.053 12.3218 58.8491 11.5656C64.2128 11.1489 69.7069 11.2991 75.0877 10.6253C77.0595 10.5482 79.0344 10.4834 81.0094 10.4289C89.2674 10.2058 97.5182 10.3615 105.769 10.6726C108.42 10.7725 110.446 10.9067 113.045 10.9587C114.033 10.979 115.6 10.9644 116.689 10.9525C116.847 10.9517 117.244 10.9431 117.416 10.9397C117.439 10.9431 117.462 10.9424 117.485 10.9417C117.569 10.9369 117.611 10.9294 117.619 10.9271C118.209 10.7924 118.15 10.0535 118.132 9.93817C118.129 9.91344 118.039 9.28931 117.533 9.28261C117.457 9.28089 116.91 9.29418 116.699 9.29674C115.618 9.30832 114.063 9.32255 113.083 9.30403C110.491 9.25192 108.47 9.11749 105.822 9.01745C97.5536 8.70702 89.2825 8.5498 81.0043 8.77356C80.037 8.80017 79.0712 8.82878 78.107 8.8615C78.035 8.73962 77.9243 8.62929 77.7488 8.57486C77.5888 8.52407 76.4413 8.50678 75.9977 8.47121C72.793 8.22334 72.8876 8.23482 69.3609 8.05926C64.0195 7.79237 63.2067 7.71883 57.6544 7.71111C50.8587 7.70152 44.0624 7.85544 37.2664 8.06521C47.0226 7.12608 56.8481 6.89866 66.5929 6.39859C70.9995 6.17371 75.4042 5.88061 79.8116 5.78607C81.3247 5.75454 82.8366 5.781 84.3497 5.75775C84.6629 5.754 85.4678 5.80084 85.5839 5.76197C85.9676 5.63596 86.0476 5.25058 86.0698 5.06364C86.0815 4.95566 86.1336 4.31666 85.5603 4.11139C83.0014 3.19943 78.2906 3.38845 75.8092 3.27072C61.9132 2.61558 47.9976 3.36407 34.1064 4.58981C28.3711 5.09489 22.6552 5.73803 16.9456 6.66444C14.949 6.98656 12.9474 7.27159 10.959 7.68243C10.6369 7.74854 9.91038 7.8523 9.55899 7.94831C9.37789 7.99959 9.24961 8.06988 9.1894 8.11525C8.90852 8.33732 8.86229 8.65334 8.86198 8.86443C8.86132 9.01758 8.89412 9.58974 9.46544 9.7185C15.2766 11.0506 21.5854 10.2583 27.4186 10.0523C37.4899 9.69911 47.5628 9.35206 57.6331 9.36726C61.0395 9.37282 62.6552 9.4022 64.6372 9.48614ZM67.5101 4.69538C56.3958 4.58713 45.2737 5.26131 34.1672 6.24127C28.4552 6.74562 22.7625 7.38594 17.0762 8.30748C16.17 8.45423 15.2653 8.59264 14.3607 8.73934C18.7083 9.01711 23.1848 8.54791 27.4058 8.39721L30.3031 8.29686C30.2794 8.21897 30.2634 8.13465 30.2582 8.0479C30.2292 7.59357 30.4826 7.18612 30.8235 7.14011C42.6784 5.56108 54.6808 5.35345 66.5662 4.74397C66.8808 4.72776 67.1955 4.71159 67.5101 4.69538Z" fill="#E2B85E"/>
</svg>
