<svg width="73" height="36" viewBox="0 0 73 36" fill="none" xmlns="http://www.w3.org/2000/svg">
<path fill-rule="evenodd" clip-rule="evenodd" d="M17.0247 7.23372C16.3863 7.82262 15.8158 8.45529 15.3268 9.1275C15.0416 9.51527 14.539 10.4184 14.6239 11.0724C14.6884 11.5625 14.9872 11.961 15.5849 12.1962C16.5391 12.5726 17.3032 12.5265 17.8907 12.299C18.4544 12.0812 18.9026 11.6568 19.181 11.0835C19.6768 10.0599 19.6191 8.51249 19.3678 7.58037C20.047 7.04287 20.7907 6.55414 21.5819 6.11813C27.6672 2.76949 36.5947 4.02058 43.4644 9.02758C45.872 10.7816 47.0165 14.4693 47.6175 18.4437C48.565 24.6802 48.025 31.6455 47.9503 33.6861C47.9333 34.2231 48.008 34.5416 48.042 34.6051C48.2322 34.956 48.5717 35.0482 48.8061 35.0825C49.1354 35.1299 49.3969 35.0799 49.6109 34.9929C49.8961 34.8769 50.1338 34.6734 50.2425 34.3565C50.2968 34.1947 50.3138 33.9698 50.307 33.7297C50.3002 33.5876 50.2561 33.4326 50.2934 33.3308C50.5583 32.6156 50.8775 31.9168 51.1865 31.2135C52.2256 28.8476 53.5737 26.6307 55.0645 24.4161C59.8152 17.3751 64.3996 9.93309 72.1861 4.56863C72.6072 4.27892 72.648 3.77886 72.2744 3.45225C71.9009 3.1259 71.2557 3.09611 70.8346 3.38581C62.8613 8.87786 58.1207 16.4738 53.2613 23.6827C52.1305 25.3577 51.0846 27.035 50.1847 28.773C50.2662 24.8492 50.144 19.5319 49.02 15.1433C48.222 12.0138 46.8874 9.35025 44.8601 7.87456C37.1958 2.28868 27.1918 1.09188 20.4036 4.82775C19.7346 5.19522 19.0996 5.59645 18.4985 6.0293C14.8922 1.14039 7.3433 -0.799248 0.66376 1.56718C0.154389 1.74854 -0.0731227 2.21802 0.161188 2.61502C0.395498 3.01201 0.999941 3.18731 1.50931 3.00594C7.39763 0.920264 14.067 2.76 17.0247 7.23372ZM17.5477 9.33417C17.3915 9.52107 17.2421 9.71192 17.0994 9.90673C16.9976 10.0433 16.8447 10.281 16.7395 10.5352C16.7055 10.6235 16.6784 10.7624 16.6648 10.8473C16.7904 10.8937 16.8923 10.9179 16.984 10.8829C17.1334 10.8246 17.1979 10.6794 17.2726 10.5257C17.439 10.1832 17.5239 9.757 17.5477 9.33417Z" fill="white"/>
</svg>
