<svg width="66" height="67" viewBox="0 0 66 67" fill="none" xmlns="http://www.w3.org/2000/svg">
<path fill-rule="evenodd" clip-rule="evenodd" d="M60.0627 1.33915C60.0514 1.10099 60.0537 0.869134 60.065 0.651474C60.1033 -0.00308389 60.7116 -0.000828697 60.759 7.25873e-05C60.8581 0.0023258 61.2998 0.0302626 61.4057 0.540615C61.4124 0.571033 61.4282 0.791395 61.4327 0.876341C61.4417 1.0575 61.4462 1.23551 61.4214 1.41419C61.4439 1.71724 61.4935 2.02909 61.5881 2.32246C61.7256 2.75552 61.9487 3.15524 62.352 3.36817C63.073 3.75122 64.0216 3.73567 64.8147 3.833C65.146 3.87356 65.3983 4.1498 65.4096 4.48328C65.4186 4.81698 65.1843 5.10809 64.8553 5.1687C63.8639 5.35211 62.7238 6.25363 61.9982 6.97962C61.7752 7.20269 61.5251 7.73399 61.2457 8.07422C61.0203 8.34686 60.7702 8.5296 60.5336 8.60215C60.4412 8.63032 59.9298 8.73307 59.6999 8.20356C59.6369 8.05485 59.4138 7.27614 59.3935 7.18736C59.2718 6.67859 59.0984 6.22411 58.7581 5.81943C58.4629 5.46861 58.1047 5.16218 57.6743 4.99229C57.5008 4.92379 57.3206 4.87174 57.1403 4.81811C57.0772 4.81045 56.8992 4.78792 56.8361 4.76651C56.7077 4.7237 56.613 4.65656 56.5454 4.58964C56.417 4.46301 56.3517 4.31182 56.3404 4.13967C56.3314 4.02611 56.3472 3.89137 56.4283 3.74198C56.4891 3.63585 56.6265 3.4761 56.8744 3.37245C57.1335 3.26407 57.6901 3.16109 57.7892 3.13428C58.4787 2.94862 59.1547 2.6663 59.6842 2.1769C59.9478 1.9322 60.0086 1.66835 60.0627 1.33915ZM60.5044 3.25529C60.7702 3.80643 61.1668 4.27036 61.7188 4.5626C61.9464 4.68405 62.1943 4.77621 62.4511 4.84786C61.9216 5.21648 61.4304 5.63557 61.0406 6.02403C60.9144 6.15043 60.777 6.35502 60.6305 6.57967C60.4593 5.97986 60.2069 5.44113 59.7923 4.94813C59.5467 4.65746 59.2696 4.3918 58.9609 4.17031C59.5197 3.94905 60.0492 3.65298 60.5044 3.25529Z" fill="#784E06"/>
<path fill-rule="evenodd" clip-rule="evenodd" d="M43.4156 45.412C43.4156 57.2034 30.7291 66.7622 18.9377 66.7622C16.6702 66.7622 14.4853 66.4088 12.4351 65.7539L10.5875 59.1553L5.82785 44.011C5.88583 44.0073 5.94321 44.0037 5.99996 44L5.49686 42.9579L5.08748 41.6553C4.9274 40.5347 4.25224 38.8299 2.75186 37.2718L0.1073 31.7938C2.51427 26.5365 6.79864 23 13.6028 23C25.3942 23 43.4156 33.6207 43.4156 45.412Z" fill="#E2B85E"/>
<path fill-rule="evenodd" clip-rule="evenodd" d="M23.7069 30.3247C22.3871 29.771 20.8961 29.6607 19.2525 30.1417C13.6403 31.7841 11.3421 36.1575 11.0347 41.3674C10.6042 48.6901 14.2573 57.7044 17.5292 62.1834C17.9116 62.7066 18.646 62.8204 19.1692 62.4391C19.6913 62.0567 19.8062 61.3223 19.4238 60.7991C16.3901 56.6462 12.9774 48.2959 13.3775 41.5058C13.6238 37.306 15.3882 33.7174 19.9118 32.393C20.8902 32.1067 21.7806 32.1466 22.5818 32.4282C22.3214 32.9502 22.0727 33.4734 21.8369 33.9966C20.8949 36.0918 19.4871 41.9094 20.0127 46.1866C20.4292 49.5711 22.0281 51.9983 25.327 51.9091C27.2157 51.8587 28.6094 50.7172 29.4459 48.8461C30.477 46.5386 30.6178 43.0086 29.8928 39.6241C29.291 36.8098 28.0967 34.1092 26.4215 32.2932C26.1869 32.0387 25.9429 31.8005 25.6906 31.58C31.1903 21.8301 41.1162 12.7829 51.3071 8.92918C51.9125 8.70042 52.2174 8.02351 51.9887 7.417C51.7599 6.81166 51.0819 6.50667 50.4766 6.73543C39.8468 10.7546 29.4857 20.1619 23.7069 30.3247ZM24.5527 33.735C24.3533 34.1421 24.1609 34.5503 23.9779 34.9586C23.132 36.8391 21.8698 42.0607 22.3414 45.9004C22.5912 47.9322 23.2846 49.6168 25.2648 49.564C26.2362 49.5382 26.8743 48.8508 27.3037 47.8888C27.8738 46.6136 28.0768 44.8844 27.9865 43.0438C27.8445 40.1884 26.9823 37.0632 25.4643 34.853C25.1839 34.4448 24.88 34.0682 24.5527 33.735Z" fill="#784E06"/>
<path fill-rule="evenodd" clip-rule="evenodd" d="M43.4517 23.6023C44.3668 18.2658 47.8662 12.5878 51.6261 8.65311C52.0731 8.18503 52.0567 7.44245 51.5886 6.99431C51.1205 6.54735 50.3767 6.56378 49.9298 7.03186C45.8672 11.2845 42.1273 17.4399 41.1395 23.2058C41.0304 23.844 41.4598 24.4505 42.098 24.5596C42.7362 24.6687 43.3426 24.2405 43.4517 23.6023Z" fill="#784E06"/>
<path fill-rule="evenodd" clip-rule="evenodd" d="M50.0308 6.80778C46.1653 9.01444 40.2363 9.30303 35.9145 8.18386C35.2869 8.02197 34.6463 8.39974 34.4844 9.02619C34.3226 9.65264 34.6991 10.2932 35.3268 10.4562C40.1859 11.7126 46.8481 11.3267 51.1945 8.84552C51.7564 8.52526 51.9524 7.80729 51.6309 7.24536C51.3095 6.68343 50.5927 6.48752 50.0308 6.80778Z" fill="#784E06"/>
</svg>
