<svg width="42" height="57" viewBox="0 0 42 57" fill="none" xmlns="http://www.w3.org/2000/svg">
<path fill-rule="evenodd" clip-rule="evenodd" d="M12.7069 24.3247C11.3871 23.771 9.89606 23.6607 8.25251 24.1417C2.64026 25.7841 0.342088 30.1575 0.0347276 35.3674C-0.395811 42.6901 3.25733 51.7044 6.52919 56.1834C6.91163 56.7066 7.64601 56.8204 8.16922 56.4391C8.69126 56.0567 8.80622 55.3223 8.42378 54.7991C5.39007 50.6462 1.97743 42.2959 2.37746 35.5058C2.62382 31.306 4.38823 27.7174 8.91182 26.393C9.89021 26.1067 10.7806 26.1466 11.5818 26.4282C11.3214 26.9502 11.0727 27.4734 10.8369 27.9966C9.89487 30.0918 8.48713 35.9094 9.0127 40.1866C9.42916 43.5711 11.0281 45.9983 14.327 45.9091C16.2157 45.8587 17.6094 44.7172 18.4459 42.8461C19.477 40.5386 19.6178 37.0086 18.8928 33.6241C18.291 30.8098 17.0967 28.1092 15.4215 26.2932C15.1869 26.0387 14.9429 25.8005 14.6906 25.58C20.1903 15.8301 30.1162 6.78291 40.3071 2.92918C40.9125 2.70042 41.2174 2.02351 40.9887 1.417C40.7599 0.811664 40.0819 0.506672 39.4766 0.735432C28.8468 4.75458 18.4857 14.1619 12.7069 24.3247ZM13.5527 27.735C13.3533 28.1421 13.1609 28.5503 12.9779 28.9586C12.132 30.8391 10.8698 36.0607 11.3414 39.9004C11.5912 41.9322 12.2846 43.6168 14.2648 43.564C15.2362 43.5382 15.8743 42.8508 16.3037 41.8888C16.8738 40.6136 17.0768 38.8844 16.9865 37.0438C16.8445 34.1884 15.9823 31.0632 14.4643 28.853C14.1839 28.4448 13.88 28.0682 13.5527 27.735Z" fill="#784E06"/>
<path fill-rule="evenodd" clip-rule="evenodd" d="M32.4517 17.6023C33.3668 12.2658 36.8662 6.58778 40.6261 2.65311C41.0731 2.18503 41.0567 1.44245 40.5886 0.994312C40.1205 0.54735 39.3767 0.563781 38.9298 1.03186C34.8672 5.28446 31.1273 11.4399 30.1395 17.2058C30.0304 17.844 30.4598 18.4505 31.098 18.5596C31.7362 18.6687 32.3426 18.2405 32.4517 17.6023Z" fill="#784E06"/>
<path fill-rule="evenodd" clip-rule="evenodd" d="M39.0308 0.807781C35.1653 3.01444 29.2363 3.30303 24.9145 2.18386C24.2869 2.02197 23.6463 2.39974 23.4844 3.02619C23.3226 3.65264 23.6991 4.29316 24.3268 4.45623C29.1859 5.71265 35.8481 5.32669 40.1945 2.84552C40.7564 2.52526 40.9524 1.80729 40.6309 1.24536C40.3095 0.683427 39.5927 0.487516 39.0308 0.807781Z" fill="#784E06"/>
</svg>
