<svg width="20" height="16" viewBox="0 0 20 16" fill="none" xmlns="http://www.w3.org/2000/svg">
<path d="M5.88571 0C2.70759 0 0 2.2944 0 5.27426C0 7.32993 0.996967 9.06062 2.31827 10.4943C3.63504 11.923 5.33388 13.1222 6.86968 14.1259L9.51953 15.8578C9.80973 16.0474 10.1903 16.0474 10.4805 15.8578L13.1303 14.1259C14.6661 13.1222 16.365 11.923 17.6817 10.4943C19.003 9.06062 20 7.32993 20 5.27426C20 2.2944 17.2924 0 14.1143 0C12.476 0 11.0345 0.74167 10 1.70133C8.96553 0.74167 7.52397 0 5.88571 0Z" fill="#E2B85E"/>
</svg>
