<svg width="18" height="18" viewBox="0 0 18 18" fill="none" xmlns="http://www.w3.org/2000/svg">
<rect width="18" height="18" rx="9" fill="#E2B85E"/>
<path d="M13.9561 7.65639C13.9511 7.2785 13.8803 6.90437 13.747 6.55073C13.6315 6.25243 13.4549 5.98153 13.2287 5.75532C13.0025 5.52911 12.7316 5.35258 12.4333 5.237C12.0842 5.10595 11.7154 5.0351 11.3426 5.02744C10.8626 5.00599 10.7104 5 9.49202 5C8.27359 5 8.11742 5 7.64093 5.02744C7.26829 5.03515 6.89966 5.10601 6.55073 5.237C6.25239 5.3525 5.98144 5.52901 5.75522 5.75522C5.52901 5.98144 5.3525 6.25239 5.237 6.55073C5.10569 6.89956 5.03499 7.26827 5.02794 7.64093C5.00649 8.12141 5 8.27359 5 9.49202C5 10.7104 5 10.8661 5.02794 11.3431C5.03543 11.7163 5.10578 12.0845 5.237 12.4343C5.35269 12.7326 5.52933 13.0034 5.75562 13.2295C5.98192 13.4556 6.25289 13.6321 6.55123 13.7475C6.89921 13.8838 7.2679 13.9598 7.64142 13.9721C8.12191 13.9935 8.27409 14 9.49252 14C10.7109 14 10.8671 14 11.3436 13.9721C11.7164 13.9647 12.0852 13.894 12.4343 13.763C12.7325 13.6473 13.0034 13.4707 13.2295 13.2445C13.4557 13.0183 13.6323 12.7475 13.748 12.4493C13.8793 12.1 13.9496 11.7318 13.9571 11.3581C13.9785 10.8781 13.985 10.7259 13.985 9.50699C13.984 8.28856 13.984 8.13388 13.9561 7.65639ZM9.48902 11.7962C8.21471 11.7962 7.18239 10.7638 7.18239 9.48952C7.18239 8.21521 8.21471 7.18289 9.48902 7.18289C10.1008 7.18289 10.6875 7.42591 11.1201 7.85849C11.5526 8.29107 11.7957 8.87777 11.7957 9.48952C11.7957 10.1013 11.5526 10.688 11.1201 11.1206C10.6875 11.5531 10.1008 11.7962 9.48902 11.7962ZM11.8875 7.63544C11.5896 7.63544 11.3496 7.39494 11.3496 7.09757C11.3496 7.02697 11.3635 6.95706 11.3905 6.89184C11.4175 6.82661 11.4571 6.76734 11.5071 6.71742C11.557 6.6675 11.6162 6.6279 11.6815 6.60088C11.7467 6.57386 11.8166 6.55996 11.8872 6.55996C11.9578 6.55996 12.0277 6.57386 12.0929 6.60088C12.1582 6.6279 12.2174 6.6675 12.2674 6.71742C12.3173 6.76734 12.3569 6.82661 12.3839 6.89184C12.4109 6.95706 12.4248 7.02697 12.4248 7.09757C12.4248 7.39494 12.1843 7.63544 11.8875 7.63544Z" fill="#784E06"/>
<path d="M9.49834 10.9879C10.3258 10.9879 10.9967 10.3171 10.9967 9.48955C10.9967 8.66204 10.3258 7.99121 9.49834 7.99121C8.67083 7.99121 8 8.66204 8 9.48955C8 10.3171 8.67083 10.9879 9.49834 10.9879Z" fill="#784E06"/>
</svg>
