<svg width="19" height="18" viewBox="0 0 19 18" fill="none" xmlns="http://www.w3.org/2000/svg">
<path d="M9.99999 0C9.44999 0 8.99999 0.45 8.99999 1V9C8.99999 9.55 9.44999 10 9.99999 10C10.55 10 11 9.55 11 9V1C11 0.45 10.55 0 9.99999 0ZM15.14 2.86C14.9561 3.04392 14.8519 3.29284 14.85 3.55295C14.8481 3.81306 14.9487 4.06345 15.13 4.25C16.26 5.45 16.96 7.05 17 8.82C17.09 12.65 13.92 15.95 10.09 15.99C9.16334 16.0045 8.24309 15.8343 7.3829 15.4894C6.52271 15.1445 5.73981 14.6317 5.07985 13.9811C4.4199 13.3304 3.8961 12.5549 3.53901 11.6997C3.18192 10.8445 2.99868 9.92676 2.99999 9C2.99999 7.16 3.70999 5.49 4.86999 4.24C5.23999 3.85 5.23999 3.24 4.85999 2.86C4.76602 2.76517 4.65389 2.69025 4.53031 2.63975C4.40673 2.58924 4.27423 2.56416 4.14074 2.56603C4.00725 2.5679 3.8755 2.59667 3.75338 2.65061C3.63126 2.70456 3.52127 2.78258 3.42999 2.88C1.92929 4.46958 1.06456 6.55489 0.999992 8.74C0.859992 13.62 4.82999 17.84 9.70999 17.99C14.81 18.15 19 14.06 19 8.99C19 6.62 18.08 4.48 16.58 2.88C16.2 2.47 15.54 2.46 15.14 2.86V2.86Z" fill="white"/>
</svg>
