<svg width="119" height="17" viewBox="0 0 119 17" fill="none" xmlns="http://www.w3.org/2000/svg">
<path fill-rule="evenodd" clip-rule="evenodd" d="M64.6372 6.48614C50.9902 7.30474 37.3465 8.69022 23.7636 10.6718C16.3448 11.7539 7.72211 11.9266 0.536846 15.0396C-0.0291883 15.2852 0.0880242 15.9747 0.100824 16.0426C0.12646 16.1846 0.233089 16.655 0.687422 16.6633C0.723088 16.6643 0.966229 16.6152 1.06069 16.5956C3.17916 16.1558 5.29106 15.6541 7.41119 15.235C14.7348 13.7834 22.0788 12.6312 29.4359 11.5904C39.2019 10.2081 49.053 9.3218 58.8491 8.56558C64.2128 8.14887 69.7069 8.29915 75.0877 7.6253C77.0595 7.54815 79.0344 7.48336 81.0094 7.42887C89.2674 7.20575 97.5182 7.36155 105.769 7.67256C108.42 7.77246 110.446 7.90674 113.045 7.95865C114.033 7.97899 115.6 7.96437 116.689 7.95254C116.847 7.95166 117.244 7.94314 117.416 7.93974C117.439 7.94314 117.462 7.94241 117.485 7.94167C117.569 7.93694 117.611 7.92939 117.619 7.92708C118.209 7.79244 118.15 7.05349 118.132 6.93817C118.129 6.91344 118.039 6.28931 117.533 6.28261C117.457 6.28089 116.91 6.29418 116.699 6.29674C115.618 6.30832 114.063 6.32255 113.083 6.30403C110.491 6.25192 108.47 6.11749 105.822 6.01745C97.5536 5.70702 89.2825 5.5498 81.0043 5.77356C80.037 5.80017 79.0712 5.82878 78.107 5.8615C78.035 5.73962 77.9243 5.62929 77.7488 5.57486C77.5888 5.52407 76.4413 5.50678 75.9977 5.47121C72.793 5.22334 72.8876 5.23482 69.3609 5.05926C64.0195 4.79237 63.2067 4.71883 57.6544 4.71111C50.8587 4.70152 44.0624 4.85544 37.2664 5.06521C47.0226 4.12608 56.8481 3.89866 66.5929 3.39859C70.9995 3.17371 75.4042 2.88061 79.8116 2.78607C81.3247 2.75454 82.8366 2.781 84.3497 2.75775C84.6629 2.754 85.4678 2.80084 85.5839 2.76197C85.9676 2.63596 86.0476 2.25058 86.0698 2.06364C86.0815 1.95566 86.1336 1.31666 85.5603 1.11139C83.0014 0.199434 78.2906 0.388446 75.8092 0.270718C61.9132 -0.384422 47.9976 0.364071 34.1064 1.58981C28.3711 2.09489 22.6552 2.73803 16.9456 3.66444C14.949 3.98656 12.9474 4.27159 10.959 4.68243C10.6369 4.74854 9.91038 4.8523 9.55899 4.94831C9.37789 4.99959 9.24961 5.06988 9.1894 5.11525C8.90852 5.33732 8.86229 5.65334 8.86198 5.86443C8.86132 6.01758 8.89412 6.58974 9.46544 6.7185C15.2766 8.05065 21.5854 7.25835 27.4186 7.05228C37.4899 6.69911 47.5628 6.35206 57.6331 6.36726C61.0395 6.37282 62.6552 6.4022 64.6372 6.48614ZM67.5101 1.69538C56.3958 1.58713 45.2737 2.26131 34.1672 3.24127C28.4552 3.74562 22.7625 4.38594 17.0762 5.30748C16.17 5.45423 15.2653 5.59264 14.3607 5.73934C18.7083 6.01711 23.1848 5.54791 27.4058 5.39721L30.3031 5.29686C30.2794 5.21897 30.2634 5.13465 30.2582 5.0479C30.2292 4.59357 30.4826 4.18612 30.8235 4.14011C42.6784 2.56108 54.6808 2.35345 66.5662 1.74397C66.8808 1.72776 67.1955 1.71159 67.5101 1.69538Z" fill="#E2B85E"/>
</svg>
