<svg width="17" height="20" viewBox="0 0 17 20" fill="none" xmlns="http://www.w3.org/2000/svg">
<path d="M14.0925 6.65794H15.8587C16.0929 6.65794 16.3175 6.75098 16.4831 6.91659C16.6487 7.0822 16.7417 7.30681 16.7417 7.54101V18.1379C16.7417 18.3721 16.6487 18.5967 16.4831 18.7623C16.3175 18.9279 16.0929 19.0209 15.8587 19.0209H1.72951C1.4953 19.0209 1.27069 18.9279 1.10508 18.7623C0.939473 18.5967 0.846436 18.3721 0.846436 18.1379V7.54101C0.846436 7.30681 0.939473 7.0822 1.10508 6.91659C1.27069 6.75098 1.4953 6.65794 1.72951 6.65794H3.49565V5.77487C3.49565 4.36964 4.05388 3.02196 5.04752 2.02831C6.04117 1.03467 7.38885 0.47644 8.79408 0.47644C10.1993 0.47644 11.547 1.03467 12.5406 2.02831C13.5343 3.02196 14.0925 4.36964 14.0925 5.77487V6.65794ZM2.61258 8.42408V17.2548H14.9756V8.42408H2.61258ZM7.91101 11.9564H9.67715V13.7225H7.91101V11.9564ZM4.37872 11.9564H6.14487V13.7225H4.37872V11.9564ZM11.4433 11.9564H13.2094V13.7225H11.4433V11.9564ZM12.3264 6.65794V5.77487C12.3264 4.83805 11.9542 3.9396 11.2918 3.27717C10.6294 2.61473 9.7309 2.24258 8.79408 2.24258C7.85726 2.24258 6.95881 2.61473 6.29638 3.27717C5.63394 3.9396 5.26179 4.83805 5.26179 5.77487V6.65794H12.3264Z" fill="#808080"/>
</svg>
