<svg width="18" height="18" viewBox="0 0 18 18" fill="none" xmlns="http://www.w3.org/2000/svg">
<rect width="18" height="18" rx="9" fill="#E2B85E"/>
<path d="M15 6.06538C14.6985 6.51755 14.3171 6.92017 13.8742 7.24226C13.8803 7.33517 13.8803 7.43427 13.8803 7.53338C13.8803 10.5375 11.6102 14 7.46365 14C6.19016 14 5.0028 13.6222 4 12.978C4.17841 12.9966 4.35682 13.0089 4.54139 13.0089C5.59955 13.0089 6.57159 12.6435 7.3406 12.0365C6.87018 12.0267 6.41454 11.8692 6.03732 11.586C5.66011 11.3028 5.38016 10.9081 5.23658 10.457C5.37192 10.4818 5.51342 10.5003 5.66107 10.5003C5.86409 10.5003 6.06711 10.4694 6.25168 10.4198C5.74142 10.3144 5.28289 10.035 4.95341 9.62877C4.62392 9.22257 4.44364 8.7144 4.44295 8.18995V8.16518C4.75056 8.33242 5.09508 8.43772 5.46421 8.4501C5.15525 8.24145 4.90212 7.95935 4.72722 7.62876C4.55231 7.29817 4.46102 6.92928 4.46141 6.55471C4.46141 6.13971 4.57215 5.74948 4.76902 5.415C5.88255 6.79009 7.54362 7.69443 9.42002 7.78734C9.38311 7.6201 9.3585 7.44666 9.3585 7.26703C9.36013 6.66521 9.59873 6.0886 10.022 5.66362C10.4452 5.23865 11.0186 5 11.6163 5C12.2685 5 12.8529 5.27254 13.2651 5.71851C13.7757 5.61321 14.2617 5.42739 14.6985 5.16724C14.5263 5.69374 14.1695 6.13971 13.7019 6.41844C14.1501 6.36912 14.5881 6.25001 15 6.06538Z" fill="#784E06"/>
</svg>
