<svg width="19" height="15" viewBox="0 0 19 15" fill="none" xmlns="http://www.w3.org/2000/svg">
<path d="M15.8587 0.738281H3.49565C2.79303 0.738281 2.1192 1.01739 1.62237 1.51422C1.12555 2.01104 0.846436 2.68488 0.846436 3.3875V12.2182C0.846436 12.9208 1.12555 13.5947 1.62237 14.0915C2.1192 14.5883 2.79303 14.8674 3.49565 14.8674H15.8587C16.5613 14.8674 17.2351 14.5883 17.7319 14.0915C18.2288 13.5947 18.5079 12.9208 18.5079 12.2182V3.3875C18.5079 2.68488 18.2288 2.01104 17.7319 1.51422C17.2351 1.01739 16.5613 0.738281 15.8587 0.738281ZM15.267 2.50442L9.67715 6.69901L4.08731 2.50442H15.267ZM15.8587 13.1013H3.49565C3.26145 13.1013 3.03683 13.0082 2.87122 12.8426C2.70562 12.677 2.61258 12.4524 2.61258 12.2182V3.60826L9.14731 8.50931C9.30016 8.62395 9.48608 8.68593 9.67715 8.68593C9.86822 8.68593 10.0541 8.62395 10.207 8.50931L16.7417 3.60826V12.2182C16.7417 12.4524 16.6487 12.677 16.4831 12.8426C16.3175 13.0082 16.0929 13.1013 15.8587 13.1013Z" fill="#808080"/>
</svg>
